<?xml version="1.0" standalone="no"?>
<!DOCTYPE svg PUBLIC "-//W3C//DTD SVG 20010904//EN"
 "http://www.w3.org/TR/2001/REC-SVG-20010904/DTD/svg10.dtd">
<svg version="1.0" xmlns="http://www.w3.org/2000/svg"
 width="32.000000pt" height="32.000000pt" viewBox="0 0 32.000000 32.000000"
 preserveAspectRatio="xMidYMid meet">

<g transform="translate(0.000000,32.000000) scale(0.100000,-0.100000)"
fill="#000000" stroke="none">
<path d="M106 304 c-3 -9 -6 -49 -6 -90 l0 -74 -45 0 -45 0 0 -70 0 -70 150 0
150 0 0 110 0 110 -45 0 c-45 0 -45 0 -45 34 0 58 -7 66 -60 66 -34 0 -50 -4
-54 -16z m94 -144 l0 -140 -40 0 -40 0 0 140 0 140 40 0 40 0 0 -140z m98 -48
l3 -92 -41 0 -40 0 0 96 0 95 38 -3 37 -3 3 -93z m-198 -37 l0 -55 -40 0 -40
0 0 48 c0 58 3 62 47 62 l33 0 0 -55z"/>
</g>
</svg>
