<?xml version="1.0" standalone="no"?>
<!DOCTYPE svg PUBLIC "-//W3C//DTD SVG 20010904//EN"
 "http://www.w3.org/TR/2001/REC-SVG-20010904/DTD/svg10.dtd">
<svg version="1.0" xmlns="http://www.w3.org/2000/svg"
 width="32.000000pt" height="32.000000pt" viewBox="0 0 32.000000 32.000000"
 preserveAspectRatio="xMidYMid meet">

<g transform="translate(0.000000,32.000000) scale(0.100000,-0.100000)"
fill="#000000" stroke="none">
<path d="M72 247 c-39 -40 -72 -77 -72 -84 0 -6 7 -16 15 -23 9 -7 15 -29 15
-51 0 -21 4 -49 10 -63 8 -22 16 -26 50 -26 l40 0 0 50 c0 49 1 50 30 50 29 0
30 -1 30 -50 l0 -50 40 0 c47 0 60 18 60 85 0 31 5 47 15 51 8 4 15 14 15 23
0 21 -140 161 -160 161 -9 0 -48 -33 -88 -73z m160 -14 c70 -69 79 -83 53 -83
-10 0 -15 -16 -17 -62 -3 -60 -4 -63 -30 -66 -26 -3 -28 -1 -28 35 0 46 -14
63 -50 63 -36 0 -50 -17 -50 -63 0 -36 -2 -38 -27 -35 -27 3 -28 6 -31 66 -2
46 -7 62 -17 62 -8 0 -15 3 -15 7 0 8 132 143 139 143 3 0 36 -30 73 -67z"/>
</g>
</svg>
