<?xml version="1.0" standalone="no"?>
<!DOCTYPE svg PUBLIC "-//W3C//DTD SVG 20010904//EN"
 "http://www.w3.org/TR/2001/REC-SVG-20010904/DTD/svg10.dtd">
<svg version="1.0" xmlns="http://www.w3.org/2000/svg"
 width="32.000000pt" height="32.000000pt" viewBox="0 0 32.000000 32.000000"
 preserveAspectRatio="xMidYMid meet">

<g transform="translate(0.000000,32.000000) scale(0.100000,-0.100000)"
fill="#000000" stroke="none">
<path d="M78 264 l-68 -34 0 -70 0 -70 70 -35 c38 -19 77 -35 87 -34 10 0 45
15 78 32 l60 32 0 74 0 74 -65 33 c-35 19 -71 34 -80 34 -8 -1 -45 -17 -82
-36z m145 0 c29 -15 55 -32 59 -38 4 -6 8 -39 8 -73 l0 -63 -60 -30 -61 -31 3
67 c2 43 8 69 16 72 8 2 12 -9 12 -35 l0 -38 19 24 c10 13 23 21 30 17 7 -5
11 4 11 26 0 19 5 39 12 46 9 9 8 12 -5 12 -24 0 -127 52 -121 62 8 13 21 10
77 -18z m-38 -27 c50 -27 61 -37 63 -62 2 -16 0 -27 -4 -23 -4 4 -13 3 -21 -3
-10 -9 -13 -7 -13 9 0 12 8 26 18 32 15 10 14 10 -5 5 -13 -4 -41 4 -75 21
-67 34 -65 33 -48 44 20 13 17 14 85 -23z m-55 -22 c49 -25 65 -45 35 -45 -19
0 -111 46 -120 60 -11 19 35 10 85 -15z m20 -118 l0 -64 -60 30 -60 30 0 64 0
63 60 -30 60 -30 0 -63z"/>
</g>
</svg>
