<?xml version="1.0" standalone="no"?>
<!DOCTYPE svg PUBLIC "-//W3C//DTD SVG 20010904//EN"
 "http://www.w3.org/TR/2001/REC-SVG-20010904/DTD/svg10.dtd">
<svg version="1.0" xmlns="http://www.w3.org/2000/svg"
 width="32.000000pt" height="32.000000pt" viewBox="0 0 32.000000 32.000000"
 preserveAspectRatio="xMidYMid meet">

<g transform="translate(0.000000,32.000000) scale(0.100000,-0.100000)"
fill="#000000" stroke="none">
<path d="M110 295 c-7 -19 -17 -25 -39 -25 -20 0 -35 -8 -45 -22 -18 -25 -21
-68 -6 -68 6 0 10 -9 10 -20 0 -11 -4 -20 -10 -20 -15 0 -12 -43 6 -68 10 -14
25 -22 45 -22 22 0 32 -6 39 -25 8 -21 16 -25 50 -25 34 0 42 4 50 25 7 19 17
25 39 25 20 0 35 8 45 22 18 25 21 68 6 68 -5 0 -10 9 -10 20 0 11 5 20 10 20
15 0 12 43 -6 68 -10 14 -25 22 -45 22 -22 0 -32 6 -39 25 -8 21 -16 25 -50
25 -34 0 -42 -4 -50 -25z m80 -20 c0 -19 36 -38 59 -30 25 8 46 -38 25 -55
-18 -16 -18 -44 0 -60 20 -15 0 -64 -22 -55 -24 9 -53 -5 -62 -31 -12 -32 -47
-32 -59 0 -11 26 -35 39 -61 31 -24 -8 -45 39 -24 55 18 16 18 44 0 60 -21 17
0 63 25 55 23 -8 59 11 59 30 0 10 10 15 30 15 20 0 30 -5 30 -15z"/>
<path d="M117 202 c-22 -24 -21 -65 1 -85 40 -36 102 -9 102 45 0 51 -69 78
-103 40z m67 -18 c9 -8 16 -19 16 -24 0 -11 -29 -40 -40 -40 -11 0 -40 29 -40
40 0 5 7 16 16 24 8 9 19 16 24 16 5 0 16 -7 24 -16z"/>
</g>
</svg>
